<?xml version="1.0" standalone="no"?>
<!DOCTYPE svg PUBLIC "-//W3C//DTD SVG 20010904//EN"
 "http://www.w3.org/TR/2001/REC-SVG-20010904/DTD/svg10.dtd">
<svg version="1.0" xmlns="http://www.w3.org/2000/svg"
 width="300.000000pt" height="300.000000pt" viewBox="0 0 300.000000 300.000000"
 preserveAspectRatio="xMidYMid meet">
<metadata>
Created by potrace 1.11, written by Peter Selinger 2001-2013
</metadata>
<g transform="translate(0.000000,300.000000) scale(0.100000,-0.100000)"
fill="#000000" stroke="none">
<path d="M120 1495 l0 -1425 1020 0 c561 0 1020 3 1020 8 0 4 -19 8 -42 9 -23
1 -44 6 -46 12 -2 6 -8 9 -13 5 -20 -12 -249 86 -249 108 0 6 -3 8 -6 5 -16
-16 -194 145 -268 243 -79 104 -157 246 -195 358 -26 77 -27 112 -3 113 21 1
14 -1 185 44 76 20 142 33 147 30 6 -4 10 -2 10 2 0 11 138 45 151 37 5 -3 9
0 9 5 0 6 7 11 15 11 9 0 28 -28 46 -66 17 -37 53 -95 79 -129 27 -35 45 -67
42 -71 -4 -4 -2 -4 4 -1 6 4 20 -3 30 -15 11 -11 38 -33 61 -48 23 -15 39 -31
35 -35 -4 -5 -2 -5 4 -2 6 3 33 -2 60 -12 70 -26 160 -34 240 -20 38 6 76 12
84 13 24 3 133 64 160 90 71 66 128 169 150 270 12 55 27 1815 16 1860 l-6 26
-1370 0 -1370 0 0 -1425z"/>
</g>
</svg>
